<svg xmlns="http://www.w3.org/2000/svg" viewBox="0 0 72 72" fill="none">
	<defs>
		<linearGradient id="paper" x1="8" y1="6" x2="64" y2="68" gradientUnits="userSpaceOnUse">
			<stop stop-color="#fffaf0" />
			<stop offset="0.58" stop-color="#f5f1e8" />
			<stop offset="1" stop-color="#e7ddc8" />
		</linearGradient>
		<linearGradient id="interior" x1="12" y1="12" x2="34" y2="58" gradientUnits="userSpaceOnUse">
			<stop stop-color="#11131a" />
			<stop offset="1" stop-color="#26313b" />
		</linearGradient>
		<linearGradient id="gate" x1="35" y1="13" x2="35" y2="59" gradientUnits="userSpaceOnUse">
			<stop stop-color="#d84e3d" />
			<stop offset="1" stop-color="#d49d2f" />
		</linearGradient>
	</defs>
	<rect x="3.5" y="3.5" width="65" height="65" rx="18" fill="url(#paper)" />
	<rect x="3.5" y="3.5" width="65" height="65" rx="18" fill="none" stroke="#11131a" stroke-opacity="0.16" />
	<path d="M10 18c0-4.4 3.6-8 8-8h16v52H18c-4.4 0-8-3.6-8-8V18Z" fill="url(#interior)" />
	<path d="M13 53c5.9-9.8 13.4-13.9 22-13.1" stroke="#2f98a5" stroke-width="1.6" stroke-linecap="round" opacity="0.78" />
	<path d="M13 42c6.7-5.5 13.7-6.8 21.2-3.8" stroke="#7dbbc2" stroke-width="1.2" stroke-linecap="round" opacity="0.62" />
	<path d="M14 30c7-1.3 13.5 0.5 19.5 5.6" stroke="#f5f1e8" stroke-width="1" stroke-linecap="round" opacity="0.35" />
	<circle cx="18" cy="25" r="1.6" fill="#2f98a5" opacity="0.85" />
	<circle cx="27" cy="34" r="1.3" fill="#f5f1e8" opacity="0.72" />
	<circle cx="23" cy="48" r="1.1" fill="#d49d2f" opacity="0.82" />
	<path d="M37 14h-5v44h5" stroke="url(#gate)" stroke-width="3" stroke-linecap="round" stroke-linejoin="round" />
	<path d="M39.5 20h13.8c3.1 0 5.7 2.5 5.7 5.7v24.6c0 3.1-2.5 5.7-5.7 5.7H39.5V20Z" fill="#fffaf0" />
	<path d="M43 15h11.5c3 0 5.5 2.5 5.5 5.5v24" stroke="#11131a" stroke-opacity="0.14" stroke-width="1.2" stroke-linecap="round" />
	<path d="M42 26h12M42 34h9M42 42h13M42 50h7" stroke="#11131a" stroke-opacity="0.23" stroke-width="1.3" stroke-linecap="round" />
	<path d="M17 23c9.5 2.5 16.4 7.4 22 15.3 4.1 5.8 8.6 8.7 16.2 8.7" stroke="#2f98a5" stroke-width="1.35" stroke-linecap="round" opacity="0.72" />
	<path d="M18 50c7.7-2.6 14.7-3 21.1-1.3 4.8 1.3 9.5 1.4 14.1 0.2" stroke="#d49d2f" stroke-width="1.25" stroke-linecap="round" opacity="0.72" />
	<circle cx="36" cy="38" r="4.3" fill="#f5f1e8" stroke="#d84e3d" stroke-width="1.7" />
	<circle cx="36" cy="38" r="1.15" fill="#d84e3d" />
</svg>
